<?xml version="1.0" encoding="UTF-8"?>
<svg id="Layer_2" data-name="Layer 2" xmlns="http://www.w3.org/2000/svg" viewBox="0 0 37 37">
  <defs>
    <style>
      .cls-1 {
        fill: #333;
      }
    </style>
  </defs>
  <g id="Layer_2-2" data-name="Layer 2">
    <g id="insta">
      <circle class="cls-1" cx="18.5" cy="18.5" r="8.5"/>
      <path class="cls-1" d="M31.23,0H5.77C2.58,0,0,2.58,0,5.77V31.23c0,3.19,2.58,5.77,5.77,5.77H31.23c3.19,0,5.77-2.58,5.77-5.77V5.77c0-3.19-2.58-5.77-5.77-5.77Zm-12.73,29.21c-5.92,0-10.71-4.8-10.71-10.71S12.58,7.79,18.5,7.79s10.71,4.8,10.71,10.71-4.8,10.71-10.71,10.71ZM29.5,9c-1.38,0-2.5-1.12-2.5-2.5s1.12-2.5,2.5-2.5,2.5,1.12,2.5,2.5-1.12,2.5-2.5,2.5Z"/>
    </g>
  </g>
</svg>